<svg xmlns="http://www.w3.org/2000/svg" xmlns:xlink="http://www.w3.org/1999/xlink" width="32" height="32" viewBox="0 0 32 32"><defs><style>.cls-1{fill:none;}.cls-2{fill:#a74ab0;}.cls-3{fill:#d394d6;}.cls-4{fill:#fafafa;}.cls-5{fill:url(#New_Pattern_Swatch_8);}.cls-6{fill:url(#New_Pattern_Swatch_7);}</style><pattern id="New_Pattern_Swatch_8" data-name="New Pattern Swatch 8" width="68" height="68" patternUnits="userSpaceOnUse" viewBox="0 0 68 68"><rect class="cls-1" width="68" height="68"/><rect class="cls-3" width="68" height="68"/></pattern><pattern id="New_Pattern_Swatch_7" data-name="New Pattern Swatch 7" width="68" height="68" patternUnits="userSpaceOnUse" viewBox="0 0 68 68"><rect class="cls-1" width="68" height="68"/><rect class="cls-2" width="68" height="68"/></pattern></defs><title>Clear</title><g id="Icon"><rect class="cls-4" x="1.86" y="10.34" width="28.28" height="11.31" transform="translate(-6.63 16) rotate(-45)"/><polygon class="cls-5" points="2.71 22 10 29.29 15.79 23.5 8.5 16.21 2.71 22"/><path class="cls-6" d="M10.71,30l20-20L22,1.29,1.29,22,10,30.71V31H31V30ZM22,2.71,29.29,10,16.5,22.79,9.21,15.5ZM2.71,22,8.5,16.21l7.29,7.29L10,29.29Z"/></g></svg>