<svg xmlns="http://www.w3.org/2000/svg" xmlns:xlink="http://www.w3.org/1999/xlink" width="32" height="32" viewBox="0 0 32 32"><defs><style>.cls-1{fill:none;}.cls-2{fill:#797774;}.cls-3{fill:#fafafa;}.cls-4{fill:#3a3a38;}.cls-5{fill:url(#New_Pattern_Swatch_4);}</style><pattern id="New_Pattern_Swatch_4" data-name="New Pattern Swatch 4" width="68" height="68" patternUnits="userSpaceOnUse" viewBox="0 0 68 68"><rect class="cls-1" width="68" height="68"/><rect class="cls-2" width="68" height="68"/></pattern></defs><title>Text-Filter</title><g id="Mask"><polygon class="cls-3" points="25.5 9 19 2.5 19 9 25.5 9"/><path class="cls-3" d="M18,10V2H6V30H21V26.18L19.84,25H8V24H18.85l-2-2H8V21h8V19H8V18h8V16H8V15H24v1h2V10ZM8,9h8v1H8Zm0,4V12H24v1Z"/><polygon class="cls-4" points="5 1 5 31 6 31 21 31 21 30 6 30 6 2 18 2 18.5 2 19 2 19 2.5 25.5 9 26 9 26 9.5 26 10 26 16 27 16 27 9.7 27 9 19 1 5 1"/><polygon class="cls-4" points="26 10 26 9.5 26 9 25.5 9 19 9 19 2.5 19 2 18.5 2 18 2 18 10 26 10"/><rect class="cls-3" x="8" y="9" width="8" height="1"/><rect class="cls-5" x="8" y="9" width="8" height="1"/><rect class="cls-3" x="8" y="12" width="16" height="1"/><rect class="cls-5" x="8" y="12" width="16" height="1"/><polygon class="cls-3" points="8 15 8 16 16 16 24 16 24 15 8 15"/><polygon class="cls-5" points="8 15 8 16 16 16 24 16 24 15 8 15"/><rect class="cls-3" x="8" y="18" width="8" height="1"/><rect class="cls-5" x="8" y="18" width="8" height="1"/><polygon class="cls-3" points="8 22 16.87 22 16 21.12 16 21 8 21 8 22"/><polygon class="cls-5" points="8 22 16.87 22 16 21.12 16 21 8 21 8 22"/><polygon class="cls-3" points="8 25 19.84 25 18.85 24 8 24 8 25"/><polygon class="cls-5" points="8 25 19.84 25 18.85 24 8 24 8 25"/></g><g id="Overlay"><polygon class="cls-3" points="31.5 17.5 17.5 17.5 17.5 20.5 22.5 25.56 22.5 31.5 26.5 31.5 26.5 25.56 31.5 20.5 31.5 17.5"/><path class="cls-4" d="M27,32H22V25.77l-5-5.06V17H32v3.71l-5,5.06Zm-4-1h3V25.36l5-5.07V18H18v2.29l5,5.07Z"/></g></svg>