<svg xmlns="http://www.w3.org/2000/svg" xmlns:xlink="http://www.w3.org/1999/xlink" width="32" height="32" viewBox="0 0 32 32"><defs><style>.cls-1{fill:none;}.cls-2{fill:#a74ab0;}.cls-3{fill:url(#New_Pattern_Swatch_7);}.cls-4{fill:#1e8bcd;}.cls-5{fill:#3a3a38;}</style><pattern id="New_Pattern_Swatch_7" data-name="New Pattern Swatch 7" width="68" height="68" patternUnits="userSpaceOnUse" viewBox="0 0 68 68"><rect class="cls-1" width="68" height="68"/><rect class="cls-2" width="68" height="68"/></pattern></defs><title>Sort-AZ</title><g id="Icon"><path class="cls-3" d="M2,29.64l7-10V20H3V18h9v1.44L5,29.36V29h7v2H2Z"/><path class="cls-4" d="M5.7,11,4.52,15H1.93L6.33,1H9.54L14,15h-2.7l-1.24-4ZM9.64,9.11,8.56,5.66c-.27-.85-.49-1.8-.69-2.61h0c-.2.81-.4,1.78-.65,2.61L6.11,9.11Z"/><polygon class="cls-5" points="23 25.12 23 6 22 6 22 25.12 16.44 19.56 15.56 20.44 22.5 27.38 29.44 20.44 28.56 19.56 23 25.12"/></g></svg>